<svg xmlns="http://www.w3.org/2000/svg" width="12.747" height="12.743" viewBox="0 0 12.747 12.743">
    <g data-name="그룹 97">
        <path d="M0 6.87v-1c.027-.191.047-.384.081-.574a6.386 6.386 0 0 1 7.5-5.183 6.06 6.06 0 0 1 3.724 2.228 6.228 6.228 0 0 1 1.316 5.253 6.128 6.128 0 0 1-1.862 3.393 6.236 6.236 0 0 1-3.249 1.651c-.215.039-.431.066-.647.1h-1c-.035-.008-.07-.019-.106-.024-.209-.03-.42-.047-.626-.088A6.377 6.377 0 0 1 .09 7.514C.06 7.304.033 7.087 0 6.87zm6.363 5.068a5.566 5.566 0 1 0-5.56-5.553 5.572 5.572 0 0 0 5.56 5.554z" data-name="패스 465"/>
        <path d="M6.75 9.488v.859h-.755v-.88a1.992 1.992 0 0 1-1.84-1.732l1.176-.306c.019.084.032.152.051.219a1 1 0 0 0 1.245.747.693.693 0 0 0 .567-.9.491.491 0 0 0-.275-.32c-.317-.14-.641-.264-.96-.4a7.533 7.533 0 0 1-.723-.325 1.63 1.63 0 0 1-.862-1.578 1.83 1.83 0 0 1 .605-1.367 1.879 1.879 0 0 1 1.008-.418v-.682h.761v.681a1.841 1.841 0 0 1 1.645 1.442l-1.031.424c-.089-.166-.163-.333-.263-.483a.8.8 0 0 0-.916-.359.636.636 0 0 0-.473.588.528.528 0 0 0 .331.571c.367.161.743.3 1.108.465a4.394 4.394 0 0 1 .756.394 1.666 1.666 0 0 1 .679 1.5A1.8 1.8 0 0 1 7.45 9.29c-.217.086-.451.129-.7.198z" data-name="패스 466"/>
    </g>
</svg>
