<?xml version="1.0" encoding="UTF-8" standalone="no"?>
<!DOCTYPE svg PUBLIC "-//W3C//DTD SVG 1.1//EN"
 "http://www.w3.org/Graphics/SVG/1.1/DTD/svg11.dtd">
<!-- Generated by graphviz version 2.42.3 (20191010.1750)
 -->
<!-- Title: G Pages: 1 -->
<svg width="718pt" height="2335pt"
 viewBox="0.00 0.00 718.24 2335.30" xmlns="http://www.w3.org/2000/svg" xmlns:xlink="http://www.w3.org/1999/xlink">
<g id="graph0" class="graph" transform="scale(1 1) rotate(0) translate(21.6 2313.7)">
<title>G</title>
<polygon fill="#111111" stroke="transparent" points="-21.6,21.6 -21.6,-2313.7 696.64,-2313.7 696.64,21.6 -21.6,21.6"/>
<!-- ../config.json -->
<g id="node1" class="node">
<title>../config.json</title>
<path fill="none" stroke="#cfffac" d="M575.72,-171.15C575.72,-171.15 497.65,-171.15 497.65,-171.15 493.62,-171.15 489.58,-167.12 489.58,-163.08 489.58,-163.08 489.58,-155.02 489.58,-155.02 489.58,-150.98 493.62,-146.95 497.65,-146.95 497.65,-146.95 575.72,-146.95 575.72,-146.95 579.75,-146.95 583.78,-150.98 583.78,-155.02 583.78,-155.02 583.78,-163.08 583.78,-163.08 583.78,-167.12 579.75,-171.15 575.72,-171.15"/>
<text text-anchor="middle" x="536.68" y="-155.9" font-family="Arial" font-size="14.00" fill="#cfffac">../config.json</text>
</g>
<!-- App.js -->
<g id="node2" class="node">
<title>App.js</title>
<path fill="none" stroke="#cfffac" d="M556.03,-402.15C556.03,-402.15 517.34,-402.15 517.34,-402.15 513.31,-402.15 509.27,-398.12 509.27,-394.08 509.27,-394.08 509.27,-386.02 509.27,-386.02 509.27,-381.98 513.31,-377.95 517.34,-377.95 517.34,-377.95 556.03,-377.95 556.03,-377.95 560.06,-377.95 564.09,-381.98 564.09,-386.02 564.09,-386.02 564.09,-394.08 564.09,-394.08 564.09,-398.12 560.06,-402.15 556.03,-402.15"/>
<text text-anchor="middle" x="536.68" y="-386.9" font-family="Arial" font-size="14.00" fill="#cfffac">App.js</text>
</g>
<!-- api/index.js -->
<g id="node3" class="node">
<title>api/index.js</title>
<path fill="none" stroke="#c6c5fe" d="M216.14,-318.15C216.14,-318.15 146.19,-318.15 146.19,-318.15 142.16,-318.15 138.12,-314.12 138.12,-310.08 138.12,-310.08 138.12,-302.02 138.12,-302.02 138.12,-297.98 142.16,-293.95 146.19,-293.95 146.19,-293.95 216.14,-293.95 216.14,-293.95 220.17,-293.95 224.21,-297.98 224.21,-302.02 224.21,-302.02 224.21,-310.08 224.21,-310.08 224.21,-314.12 220.17,-318.15 216.14,-318.15"/>
<text text-anchor="middle" x="181.16" y="-302.9" font-family="Arial" font-size="14.00" fill="#c6c5fe">api/index.js</text>
</g>
<!-- api/index.js&#45;&gt;../config.json -->
<g id="edge1" class="edge">
<title>api/index.js&#45;&gt;../config.json</title>
<path fill="none" stroke="#757575" d="M224.4,-307.1C261.86,-306.65 317.45,-302.57 362.33,-285.05 425.32,-260.45 486.25,-207.27 516.29,-178.49"/>
<polygon fill="#757575" stroke="#757575" points="518.86,-180.88 523.59,-171.4 513.98,-175.86 518.86,-180.88"/>
</g>
<!-- components/BaseButton.js -->
<g id="node4" class="node">
<title>components/BaseButton.js</title>
<path fill="none" stroke="#cfffac" d="M264.14,-402.15C264.14,-402.15 98.19,-402.15 98.19,-402.15 94.15,-402.15 90.12,-398.12 90.12,-394.08 90.12,-394.08 90.12,-386.02 90.12,-386.02 90.12,-381.98 94.15,-377.95 98.19,-377.95 98.19,-377.95 264.14,-377.95 264.14,-377.95 268.18,-377.95 272.21,-381.98 272.21,-386.02 272.21,-386.02 272.21,-394.08 272.21,-394.08 272.21,-398.12 268.18,-402.15 264.14,-402.15"/>
<text text-anchor="middle" x="181.16" y="-386.9" font-family="Arial" font-size="14.00" fill="#cfffac">components/BaseButton.js</text>
</g>
<!-- components/BaseTab.js -->
<g id="node5" class="node">
<title>components/BaseTab.js</title>
<path fill="none" stroke="#cfffac" d="M255.24,-444.15C255.24,-444.15 107.09,-444.15 107.09,-444.15 103.06,-444.15 99.02,-440.12 99.02,-436.08 99.02,-436.08 99.02,-428.02 99.02,-428.02 99.02,-423.98 103.06,-419.95 107.09,-419.95 107.09,-419.95 255.24,-419.95 255.24,-419.95 259.27,-419.95 263.31,-423.98 263.31,-428.02 263.31,-428.02 263.31,-436.08 263.31,-436.08 263.31,-440.12 259.27,-444.15 255.24,-444.15"/>
<text text-anchor="middle" x="181.16" y="-428.9" font-family="Arial" font-size="14.00" fill="#cfffac">components/BaseTab.js</text>
</g>
<!-- components/BaseTable.js -->
<g id="node6" class="node">
<title>components/BaseTable.js</title>
<path fill="none" stroke="#cfffac" d="M260.64,-486.15C260.64,-486.15 101.69,-486.15 101.69,-486.15 97.66,-486.15 93.63,-482.12 93.63,-478.08 93.63,-478.08 93.63,-470.02 93.63,-470.02 93.63,-465.98 97.66,-461.95 101.69,-461.95 101.69,-461.95 260.64,-461.95 260.64,-461.95 264.67,-461.95 268.7,-465.98 268.7,-470.02 268.7,-470.02 268.7,-478.08 268.7,-478.08 268.7,-482.12 264.67,-486.15 260.64,-486.15"/>
<text text-anchor="middle" x="181.16" y="-470.9" font-family="Arial" font-size="14.00" fill="#cfffac">components/BaseTable.js</text>
</g>
<!-- components/BaseToggleSwitch.js -->
<g id="node7" class="node">
<title>components/BaseToggleSwitch.js</title>
<path fill="none" stroke="#cfffac" d="M285.16,-528.15C285.16,-528.15 77.17,-528.15 77.17,-528.15 73.14,-528.15 69.11,-524.12 69.11,-520.08 69.11,-520.08 69.11,-512.02 69.11,-512.02 69.11,-507.98 73.14,-503.95 77.17,-503.95 77.17,-503.95 285.16,-503.95 285.16,-503.95 289.19,-503.95 293.22,-507.98 293.22,-512.02 293.22,-512.02 293.22,-520.08 293.22,-520.08 293.22,-524.12 289.19,-528.15 285.16,-528.15"/>
<text text-anchor="middle" x="181.16" y="-512.9" font-family="Arial" font-size="14.00" fill="#cfffac">components/BaseToggleSwitch.js</text>
</g>
<!-- components/Introduction.js -->
<g id="node8" class="node">
<title>components/Introduction.js</title>
<path fill="none" stroke="#cfffac" d="M264.92,-570.15C264.92,-570.15 97.41,-570.15 97.41,-570.15 93.38,-570.15 89.35,-566.12 89.35,-562.08 89.35,-562.08 89.35,-554.02 89.35,-554.02 89.35,-549.98 93.38,-545.95 97.41,-545.95 97.41,-545.95 264.92,-545.95 264.92,-545.95 268.95,-545.95 272.98,-549.98 272.98,-554.02 272.98,-554.02 272.98,-562.08 272.98,-562.08 272.98,-566.12 268.95,-570.15 264.92,-570.15"/>
<text text-anchor="middle" x="181.16" y="-554.9" font-family="Arial" font-size="14.00" fill="#cfffac">components/Introduction.js</text>
</g>
<!-- components/LoadingSpinner.js -->
<g id="node9" class="node">
<title>components/LoadingSpinner.js</title>
<path fill="none" stroke="#cfffac" d="M277.07,-612.15C277.07,-612.15 85.26,-612.15 85.26,-612.15 81.23,-612.15 77.2,-608.12 77.2,-604.08 77.2,-604.08 77.2,-596.02 77.2,-596.02 77.2,-591.98 81.23,-587.95 85.26,-587.95 85.26,-587.95 277.07,-587.95 277.07,-587.95 281.1,-587.95 285.13,-591.98 285.13,-596.02 285.13,-596.02 285.13,-604.08 285.13,-604.08 285.13,-608.12 281.1,-612.15 277.07,-612.15"/>
<text text-anchor="middle" x="181.16" y="-596.9" font-family="Arial" font-size="14.00" fill="#cfffac">components/LoadingSpinner.js</text>
</g>
<!-- components/OperatorInfo.js -->
<g id="node10" class="node">
<title>components/OperatorInfo.js</title>
<path fill="none" stroke="#cfffac" d="M267.36,-654.15C267.36,-654.15 94.97,-654.15 94.97,-654.15 90.94,-654.15 86.91,-650.12 86.91,-646.08 86.91,-646.08 86.91,-638.02 86.91,-638.02 86.91,-633.98 90.94,-629.95 94.97,-629.95 94.97,-629.95 267.36,-629.95 267.36,-629.95 271.39,-629.95 275.42,-633.98 275.42,-638.02 275.42,-638.02 275.42,-646.08 275.42,-646.08 275.42,-650.12 271.39,-654.15 267.36,-654.15"/>
<text text-anchor="middle" x="181.16" y="-638.9" font-family="Arial" font-size="14.00" fill="#cfffac">components/OperatorInfo.js</text>
</g>
<!-- components/OperatorInfoInput.js -->
<g id="node11" class="node">
<title>components/OperatorInfoInput.js</title>
<path fill="none" stroke="#cfffac" d="M282.99,-696.15C282.99,-696.15 79.33,-696.15 79.33,-696.15 75.3,-696.15 71.27,-692.12 71.27,-688.08 71.27,-688.08 71.27,-680.02 71.27,-680.02 71.27,-675.98 75.3,-671.95 79.33,-671.95 79.33,-671.95 282.99,-671.95 282.99,-671.95 287.03,-671.95 291.06,-675.98 291.06,-680.02 291.06,-680.02 291.06,-688.08 291.06,-688.08 291.06,-692.12 287.03,-696.15 282.99,-696.15"/>
<text text-anchor="middle" x="181.16" y="-680.9" font-family="Arial" font-size="14.00" fill="#cfffac">components/OperatorInfoInput.js</text>
</g>
<!-- components/OperatorInfoRegistry.js -->
<g id="node12" class="node">
<title>components/OperatorInfoRegistry.js</title>
<path fill="none" stroke="#c6c5fe" d="M292.66,-276.15C292.66,-276.15 69.67,-276.15 69.67,-276.15 65.63,-276.15 61.6,-272.12 61.6,-268.08 61.6,-268.08 61.6,-260.02 61.6,-260.02 61.6,-255.98 65.63,-251.95 69.67,-251.95 69.67,-251.95 292.66,-251.95 292.66,-251.95 296.7,-251.95 300.73,-255.98 300.73,-260.02 300.73,-260.02 300.73,-268.08 300.73,-268.08 300.73,-272.12 296.7,-276.15 292.66,-276.15"/>
<text text-anchor="middle" x="181.16" y="-260.9" font-family="Arial" font-size="14.00" fill="#c6c5fe">components/OperatorInfoRegistry.js</text>
</g>
<!-- components/OperatorInfoRegistry.js&#45;&gt;../config.json -->
<g id="edge2" class="edge">
<title>components/OperatorInfoRegistry.js&#45;&gt;../config.json</title>
<path fill="none" stroke="#757575" d="M301.05,-255.92C321.72,-252.89 342.83,-248.73 362.33,-243.05 416.33,-227.31 474.2,-195.99 507.55,-176.36"/>
<polygon fill="#757575" stroke="#757575" points="509.48,-179.29 516.28,-171.16 505.9,-173.27 509.48,-179.29"/>
</g>
<!-- components/SearchBar.js -->
<g id="node13" class="node">
<title>components/SearchBar.js</title>
<path fill="none" stroke="#cfffac" d="M260.63,-738.15C260.63,-738.15 101.7,-738.15 101.7,-738.15 97.67,-738.15 93.63,-734.12 93.63,-730.08 93.63,-730.08 93.63,-722.02 93.63,-722.02 93.63,-717.98 97.67,-713.95 101.7,-713.95 101.7,-713.95 260.63,-713.95 260.63,-713.95 264.66,-713.95 268.7,-717.98 268.7,-722.02 268.7,-722.02 268.7,-730.08 268.7,-730.08 268.7,-734.12 264.66,-738.15 260.63,-738.15"/>
<text text-anchor="middle" x="181.16" y="-722.9" font-family="Arial" font-size="14.00" fill="#cfffac">components/SearchBar.js</text>
</g>
<!-- components/TONInput.js -->
<g id="node14" class="node">
<title>components/TONInput.js</title>
<path fill="none" stroke="#cfffac" d="M258.19,-780.15C258.19,-780.15 104.14,-780.15 104.14,-780.15 100.1,-780.15 96.07,-776.12 96.07,-772.08 96.07,-772.08 96.07,-764.02 96.07,-764.02 96.07,-759.98 100.1,-755.95 104.14,-755.95 104.14,-755.95 258.19,-755.95 258.19,-755.95 262.23,-755.95 266.26,-759.98 266.26,-764.02 266.26,-764.02 266.26,-772.08 266.26,-772.08 266.26,-776.12 262.23,-780.15 258.19,-780.15"/>
<text text-anchor="middle" x="181.16" y="-764.9" font-family="Arial" font-size="14.00" fill="#cfffac">components/TONInput.js</text>
</g>
<!-- components/TextViewer.js -->
<g id="node15" class="node">
<title>components/TextViewer.js</title>
<path fill="none" stroke="#cfffac" d="M261.7,-822.15C261.7,-822.15 100.63,-822.15 100.63,-822.15 96.6,-822.15 92.56,-818.12 92.56,-814.08 92.56,-814.08 92.56,-806.02 92.56,-806.02 92.56,-801.98 96.6,-797.95 100.63,-797.95 100.63,-797.95 261.7,-797.95 261.7,-797.95 265.73,-797.95 269.77,-801.98 269.77,-806.02 269.77,-806.02 269.77,-814.08 269.77,-814.08 269.77,-818.12 265.73,-822.15 261.7,-822.15"/>
<text text-anchor="middle" x="181.16" y="-806.9" font-family="Arial" font-size="14.00" fill="#cfffac">components/TextViewer.js</text>
</g>
<!-- components/TextViewerDownloader.js -->
<g id="node16" class="node">
<title>components/TextViewerDownloader.js</title>
<path fill="none" stroke="#cfffac" d="M299.41,-864.15C299.41,-864.15 62.92,-864.15 62.92,-864.15 58.89,-864.15 54.85,-860.12 54.85,-856.08 54.85,-856.08 54.85,-848.02 54.85,-848.02 54.85,-843.98 58.89,-839.95 62.92,-839.95 62.92,-839.95 299.41,-839.95 299.41,-839.95 303.44,-839.95 307.48,-843.98 307.48,-848.02 307.48,-848.02 307.48,-856.08 307.48,-856.08 307.48,-860.12 303.44,-864.15 299.41,-864.15"/>
<text text-anchor="middle" x="181.16" y="-848.9" font-family="Arial" font-size="14.00" fill="#cfffac">components/TextViewerDownloader.js</text>
</g>
<!-- components/TextViewerLink.js -->
<g id="node17" class="node">
<title>components/TextViewerLink.js</title>
<path fill="none" stroke="#c6c5fe" d="M275.16,-234.15C275.16,-234.15 87.17,-234.15 87.17,-234.15 83.14,-234.15 79.11,-230.12 79.11,-226.08 79.11,-226.08 79.11,-218.02 79.11,-218.02 79.11,-213.98 83.14,-209.95 87.17,-209.95 87.17,-209.95 275.16,-209.95 275.16,-209.95 279.19,-209.95 283.22,-213.98 283.22,-218.02 283.22,-218.02 283.22,-226.08 283.22,-226.08 283.22,-230.12 279.19,-234.15 275.16,-234.15"/>
<text text-anchor="middle" x="181.16" y="-218.9" font-family="Arial" font-size="14.00" fill="#c6c5fe">components/TextViewerLink.js</text>
</g>
<!-- components/TextViewerLink.js&#45;&gt;../config.json -->
<g id="edge3" class="edge">
<title>components/TextViewerLink.js&#45;&gt;../config.json</title>
<path fill="none" stroke="#757575" d="M283.49,-212.43C309.29,-209.38 336.91,-205.59 362.33,-201.05 402.98,-193.78 448.31,-182.69 482.42,-173.73"/>
<polygon fill="#757575" stroke="#757575" points="483.41,-177.09 492.18,-171.15 481.62,-170.33 483.41,-177.09"/>
</g>
<!-- components/TxProcessor.js -->
<g id="node18" class="node">
<title>components/TxProcessor.js</title>
<path fill="none" stroke="#c6c5fe" d="M267.06,-192.15C267.06,-192.15 95.27,-192.15 95.27,-192.15 91.24,-192.15 87.21,-188.12 87.21,-184.08 87.21,-184.08 87.21,-176.02 87.21,-176.02 87.21,-171.98 91.24,-167.95 95.27,-167.95 95.27,-167.95 267.06,-167.95 267.06,-167.95 271.09,-167.95 275.12,-171.98 275.12,-176.02 275.12,-176.02 275.12,-184.08 275.12,-184.08 275.12,-188.12 271.09,-192.15 267.06,-192.15"/>
<text text-anchor="middle" x="181.16" y="-176.9" font-family="Arial" font-size="14.00" fill="#c6c5fe">components/TxProcessor.js</text>
</g>
<!-- components/TxProcessor.js&#45;&gt;../config.json -->
<g id="edge4" class="edge">
<title>components/TxProcessor.js&#45;&gt;../config.json</title>
<path fill="none" stroke="#757575" d="M275.51,-174.5C340.27,-170.66 424.42,-165.66 479.22,-162.4"/>
<polygon fill="#757575" stroke="#757575" points="479.66,-165.88 489.44,-161.8 479.25,-158.9 479.66,-165.88"/>
</g>
<!-- components/Wallet.js -->
<g id="node19" class="node">
<title>components/Wallet.js</title>
<path fill="none" stroke="#cfffac" d="M247.13,-906.15C247.13,-906.15 115.19,-906.15 115.19,-906.15 111.16,-906.15 107.13,-902.12 107.13,-898.08 107.13,-898.08 107.13,-890.02 107.13,-890.02 107.13,-885.98 111.16,-881.95 115.19,-881.95 115.19,-881.95 247.13,-881.95 247.13,-881.95 251.17,-881.95 255.2,-885.98 255.2,-890.02 255.2,-890.02 255.2,-898.08 255.2,-898.08 255.2,-902.12 251.17,-906.15 247.13,-906.15"/>
<text text-anchor="middle" x="181.16" y="-890.9" font-family="Arial" font-size="14.00" fill="#cfffac">components/Wallet.js</text>
</g>
<!-- components/table/DashboardHistoryTable.js -->
<g id="node20" class="node">
<title>components/table/DashboardHistoryTable.js</title>
<path fill="none" stroke="#cfffac" d="M318.02,-948.15C318.02,-948.15 44.31,-948.15 44.31,-948.15 40.27,-948.15 36.24,-944.12 36.24,-940.08 36.24,-940.08 36.24,-932.02 36.24,-932.02 36.24,-927.98 40.27,-923.95 44.31,-923.95 44.31,-923.95 318.02,-923.95 318.02,-923.95 322.05,-923.95 326.09,-927.98 326.09,-932.02 326.09,-932.02 326.09,-940.08 326.09,-940.08 326.09,-944.12 322.05,-948.15 318.02,-948.15"/>
<text text-anchor="middle" x="181.16" y="-932.9" font-family="Arial" font-size="14.00" fill="#cfffac">components/table/DashboardHistoryTable.js</text>
</g>
<!-- components/table/DashboardOperatorTable.js -->
<g id="node21" class="node">
<title>components/table/DashboardOperatorTable.js</title>
<path fill="none" stroke="#cfffac" d="M323.71,-990.15C323.71,-990.15 38.62,-990.15 38.62,-990.15 34.58,-990.15 30.55,-986.12 30.55,-982.08 30.55,-982.08 30.55,-974.02 30.55,-974.02 30.55,-969.98 34.58,-965.95 38.62,-965.95 38.62,-965.95 323.71,-965.95 323.71,-965.95 327.74,-965.95 331.78,-969.98 331.78,-974.02 331.78,-974.02 331.78,-982.08 331.78,-982.08 331.78,-986.12 327.74,-990.15 323.71,-990.15"/>
<text text-anchor="middle" x="181.16" y="-974.9" font-family="Arial" font-size="14.00" fill="#cfffac">components/table/DashboardOperatorTable.js</text>
</g>
<!-- components/table/HistoryTable.js -->
<g id="node22" class="node">
<title>components/table/HistoryTable.js</title>
<path fill="none" stroke="#cfffac" d="M639.55,-1032.15C639.55,-1032.15 433.82,-1032.15 433.82,-1032.15 429.78,-1032.15 425.75,-1028.12 425.75,-1024.08 425.75,-1024.08 425.75,-1016.02 425.75,-1016.02 425.75,-1011.98 429.78,-1007.95 433.82,-1007.95 433.82,-1007.95 639.55,-1007.95 639.55,-1007.95 643.58,-1007.95 647.62,-1011.98 647.62,-1016.02 647.62,-1016.02 647.62,-1024.08 647.62,-1024.08 647.62,-1028.12 643.58,-1032.15 639.55,-1032.15"/>
<text text-anchor="middle" x="536.68" y="-1016.9" font-family="Arial" font-size="14.00" fill="#cfffac">components/table/HistoryTable.js</text>
</g>
<!-- components/table/OperatorTable.js -->
<g id="node23" class="node">
<title>components/table/OperatorTable.js</title>
<path fill="none" stroke="#cfffac" d="M289.72,-1074.15C289.72,-1074.15 72.61,-1074.15 72.61,-1074.15 68.57,-1074.15 64.54,-1070.12 64.54,-1066.08 64.54,-1066.08 64.54,-1058.02 64.54,-1058.02 64.54,-1053.98 68.57,-1049.95 72.61,-1049.95 72.61,-1049.95 289.72,-1049.95 289.72,-1049.95 293.75,-1049.95 297.79,-1053.98 297.79,-1058.02 297.79,-1058.02 297.79,-1066.08 297.79,-1066.08 297.79,-1070.12 293.75,-1074.15 289.72,-1074.15"/>
<text text-anchor="middle" x="181.16" y="-1058.9" font-family="Arial" font-size="14.00" fill="#cfffac">components/table/OperatorTable.js</text>
</g>
<!-- components/table/RankTable.js -->
<g id="node24" class="node">
<title>components/table/RankTable.js</title>
<path fill="none" stroke="#cfffac" d="M278.16,-1116.15C278.16,-1116.15 84.17,-1116.15 84.17,-1116.15 80.14,-1116.15 76.11,-1112.12 76.11,-1108.08 76.11,-1108.08 76.11,-1100.02 76.11,-1100.02 76.11,-1095.98 80.14,-1091.95 84.17,-1091.95 84.17,-1091.95 278.16,-1091.95 278.16,-1091.95 282.19,-1091.95 286.22,-1095.98 286.22,-1100.02 286.22,-1100.02 286.22,-1108.08 286.22,-1108.08 286.22,-1112.12 282.19,-1116.15 278.16,-1116.15"/>
<text text-anchor="middle" x="181.16" y="-1100.9" font-family="Arial" font-size="14.00" fill="#cfffac">components/table/RankTable.js</text>
</g>
<!-- components/table/StakedOperatorTable.js -->
<g id="node25" class="node">
<title>components/table/StakedOperatorTable.js</title>
<path fill="none" stroke="#cfffac" d="M666.83,-1158.15C666.83,-1158.15 406.54,-1158.15 406.54,-1158.15 402.51,-1158.15 398.47,-1154.12 398.47,-1150.08 398.47,-1150.08 398.47,-1142.02 398.47,-1142.02 398.47,-1137.98 402.51,-1133.95 406.54,-1133.95 406.54,-1133.95 666.83,-1133.95 666.83,-1133.95 670.86,-1133.95 674.89,-1137.98 674.89,-1142.02 674.89,-1142.02 674.89,-1150.08 674.89,-1150.08 674.89,-1154.12 670.86,-1158.15 666.83,-1158.15"/>
<text text-anchor="middle" x="536.68" y="-1142.9" font-family="Arial" font-size="14.00" fill="#cfffac">components/table/StakedOperatorTable.js</text>
</g>
<!-- components/table/WinnerTable.js -->
<g id="node26" class="node">
<title>components/table/WinnerTable.js</title>
<path fill="none" stroke="#cfffac" d="M284.32,-1200.15C284.32,-1200.15 78.01,-1200.15 78.01,-1200.15 73.98,-1200.15 69.94,-1196.12 69.94,-1192.08 69.94,-1192.08 69.94,-1184.02 69.94,-1184.02 69.94,-1179.98 73.98,-1175.95 78.01,-1175.95 78.01,-1175.95 284.32,-1175.95 284.32,-1175.95 288.35,-1175.95 292.38,-1179.98 292.38,-1184.02 292.38,-1184.02 292.38,-1192.08 292.38,-1192.08 292.38,-1196.12 288.35,-1200.15 284.32,-1200.15"/>
<text text-anchor="middle" x="181.16" y="-1184.9" font-family="Arial" font-size="14.00" fill="#cfffac">components/table/WinnerTable.js</text>
</g>
<!-- containers/ContainerHeader.js -->
<g id="node27" class="node">
<title>containers/ContainerHeader.js</title>
<path fill="none" stroke="#cfffac" d="M275.43,-1242.15C275.43,-1242.15 86.9,-1242.15 86.9,-1242.15 82.87,-1242.15 78.83,-1238.12 78.83,-1234.08 78.83,-1234.08 78.83,-1226.02 78.83,-1226.02 78.83,-1221.98 82.87,-1217.95 86.9,-1217.95 86.9,-1217.95 275.43,-1217.95 275.43,-1217.95 279.46,-1217.95 283.49,-1221.98 283.49,-1226.02 283.49,-1226.02 283.49,-1234.08 283.49,-1234.08 283.49,-1238.12 279.46,-1242.15 275.43,-1242.15"/>
<text text-anchor="middle" x="181.16" y="-1226.9" font-family="Arial" font-size="14.00" fill="#cfffac">containers/ContainerHeader.js</text>
</g>
<!-- containers/DelegateManagerContainer.js -->
<g id="node28" class="node">
<title>containers/DelegateManagerContainer.js</title>
<path fill="none" stroke="#cfffac" d="M307.81,-1284.15C307.81,-1284.15 54.52,-1284.15 54.52,-1284.15 50.49,-1284.15 46.46,-1280.12 46.46,-1276.08 46.46,-1276.08 46.46,-1268.02 46.46,-1268.02 46.46,-1263.98 50.49,-1259.95 54.52,-1259.95 54.52,-1259.95 307.81,-1259.95 307.81,-1259.95 311.84,-1259.95 315.87,-1263.98 315.87,-1268.02 315.87,-1268.02 315.87,-1276.08 315.87,-1276.08 315.87,-1280.12 311.84,-1284.15 307.81,-1284.15"/>
<text text-anchor="middle" x="181.16" y="-1268.9" font-family="Arial" font-size="14.00" fill="#cfffac">containers/DelegateManagerContainer.js</text>
</g>
<!-- containers/FooterContainer.js -->
<g id="node29" class="node">
<title>containers/FooterContainer.js</title>
<path fill="none" stroke="#cfffac" d="M272.47,-1326.15C272.47,-1326.15 89.86,-1326.15 89.86,-1326.15 85.82,-1326.15 81.79,-1322.12 81.79,-1318.08 81.79,-1318.08 81.79,-1310.02 81.79,-1310.02 81.79,-1305.98 85.82,-1301.95 89.86,-1301.95 89.86,-1301.95 272.47,-1301.95 272.47,-1301.95 276.51,-1301.95 280.54,-1305.98 280.54,-1310.02 280.54,-1310.02 280.54,-1318.08 280.54,-1318.08 280.54,-1322.12 276.51,-1326.15 272.47,-1326.15"/>
<text text-anchor="middle" x="181.16" y="-1310.9" font-family="Arial" font-size="14.00" fill="#cfffac">containers/FooterContainer.js</text>
</g>
<!-- containers/HeaderContainer.js -->
<g id="node30" class="node">
<title>containers/HeaderContainer.js</title>
<path fill="none" stroke="#cfffac" d="M275.43,-1368.15C275.43,-1368.15 86.9,-1368.15 86.9,-1368.15 82.87,-1368.15 78.83,-1364.12 78.83,-1360.08 78.83,-1360.08 78.83,-1352.02 78.83,-1352.02 78.83,-1347.98 82.87,-1343.95 86.9,-1343.95 86.9,-1343.95 275.43,-1343.95 275.43,-1343.95 279.46,-1343.95 283.49,-1347.98 283.49,-1352.02 283.49,-1352.02 283.49,-1360.08 283.49,-1360.08 283.49,-1364.12 279.46,-1368.15 275.43,-1368.15"/>
<text text-anchor="middle" x="181.16" y="-1352.9" font-family="Arial" font-size="14.00" fill="#cfffac">containers/HeaderContainer.js</text>
</g>
<!-- containers/MenuContainer.js -->
<g id="node31" class="node">
<title>containers/MenuContainer.js</title>
<path fill="none" stroke="#cfffac" d="M270.03,-1410.15C270.03,-1410.15 92.3,-1410.15 92.3,-1410.15 88.26,-1410.15 84.23,-1406.12 84.23,-1402.08 84.23,-1402.08 84.23,-1394.02 84.23,-1394.02 84.23,-1389.98 88.26,-1385.95 92.3,-1385.95 92.3,-1385.95 270.03,-1385.95 270.03,-1385.95 274.07,-1385.95 278.1,-1389.98 278.1,-1394.02 278.1,-1394.02 278.1,-1402.08 278.1,-1402.08 278.1,-1406.12 274.07,-1410.15 270.03,-1410.15"/>
<text text-anchor="middle" x="181.16" y="-1394.9" font-family="Arial" font-size="14.00" fill="#cfffac">containers/MenuContainer.js</text>
</g>
<!-- containers/OperatorInfoContainer.js -->
<g id="node32" class="node">
<title>containers/OperatorInfoContainer.js</title>
<path fill="none" stroke="#c6c5fe" d="M291.61,-150.15C291.61,-150.15 70.72,-150.15 70.72,-150.15 66.68,-150.15 62.65,-146.12 62.65,-142.08 62.65,-142.08 62.65,-134.02 62.65,-134.02 62.65,-129.98 66.68,-125.95 70.72,-125.95 70.72,-125.95 291.61,-125.95 291.61,-125.95 295.64,-125.95 299.68,-129.98 299.68,-134.02 299.68,-134.02 299.68,-142.08 299.68,-142.08 299.68,-146.12 295.64,-150.15 291.61,-150.15"/>
<text text-anchor="middle" x="181.16" y="-134.9" font-family="Arial" font-size="14.00" fill="#c6c5fe">containers/OperatorInfoContainer.js</text>
</g>
<!-- containers/OperatorInfoContainer.js&#45;&gt;../config.json -->
<g id="edge5" class="edge">
<title>containers/OperatorInfoContainer.js&#45;&gt;../config.json</title>
<path fill="none" stroke="#757575" d="M299.88,-145.04C360.32,-148.63 431.17,-152.84 479.31,-155.7"/>
<polygon fill="#757575" stroke="#757575" points="479.34,-159.21 489.53,-156.31 479.76,-152.22 479.34,-159.21"/>
</g>
<!-- containers/RankContainer.js -->
<g id="node33" class="node">
<title>containers/RankContainer.js</title>
<path fill="none" stroke="#cfffac" d="M268.69,-1452.15C268.69,-1452.15 93.63,-1452.15 93.63,-1452.15 89.6,-1452.15 85.57,-1448.12 85.57,-1444.08 85.57,-1444.08 85.57,-1436.02 85.57,-1436.02 85.57,-1431.98 89.6,-1427.95 93.63,-1427.95 93.63,-1427.95 268.69,-1427.95 268.69,-1427.95 272.73,-1427.95 276.76,-1431.98 276.76,-1436.02 276.76,-1436.02 276.76,-1444.08 276.76,-1444.08 276.76,-1448.12 272.73,-1452.15 268.69,-1452.15"/>
<text text-anchor="middle" x="181.16" y="-1436.9" font-family="Arial" font-size="14.00" fill="#cfffac">containers/RankContainer.js</text>
</g>
<!-- containers/SelectWalletContainer.js -->
<g id="node34" class="node">
<title>containers/SelectWalletContainer.js</title>
<path fill="none" stroke="#c6c5fe" d="M290.8,-108.15C290.8,-108.15 71.53,-108.15 71.53,-108.15 67.5,-108.15 63.46,-104.12 63.46,-100.08 63.46,-100.08 63.46,-92.02 63.46,-92.02 63.46,-87.98 67.5,-83.95 71.53,-83.95 71.53,-83.95 290.8,-83.95 290.8,-83.95 294.83,-83.95 298.86,-87.98 298.86,-92.02 298.86,-92.02 298.86,-100.08 298.86,-100.08 298.86,-104.12 294.83,-108.15 290.8,-108.15"/>
<text text-anchor="middle" x="181.16" y="-92.9" font-family="Arial" font-size="14.00" fill="#c6c5fe">containers/SelectWalletContainer.js</text>
</g>
<!-- containers/SelectWalletContainer.js&#45;&gt;../config.json -->
<g id="edge6" class="edge">
<title>containers/SelectWalletContainer.js&#45;&gt;../config.json</title>
<path fill="none" stroke="#757575" d="M299.25,-107.6C320.32,-110.27 342.02,-113.42 362.33,-117.05 402.98,-124.31 448.31,-135.41 482.42,-144.37"/>
<polygon fill="#757575" stroke="#757575" points="481.62,-147.77 492.18,-146.95 483.41,-141.01 481.62,-147.77"/>
</g>
<!-- containers/StakeInfoContainer.js -->
<g id="node35" class="node">
<title>containers/StakeInfoContainer.js</title>
<path fill="none" stroke="#cfffac" d="M281.66,-1494.15C281.66,-1494.15 80.67,-1494.15 80.67,-1494.15 76.63,-1494.15 72.6,-1490.12 72.6,-1486.08 72.6,-1486.08 72.6,-1478.02 72.6,-1478.02 72.6,-1473.98 76.63,-1469.95 80.67,-1469.95 80.67,-1469.95 281.66,-1469.95 281.66,-1469.95 285.7,-1469.95 289.73,-1473.98 289.73,-1478.02 289.73,-1478.02 289.73,-1486.08 289.73,-1486.08 289.73,-1490.12 285.7,-1494.15 281.66,-1494.15"/>
<text text-anchor="middle" x="181.16" y="-1478.9" font-family="Arial" font-size="14.00" fill="#cfffac">containers/StakeInfoContainer.js</text>
</g>
<!-- containers/StakedOperatorContainer.js -->
<g id="node36" class="node">
<title>containers/StakedOperatorContainer.js</title>
<path fill="none" stroke="#c6c5fe" d="M301.85,-1158.15C301.85,-1158.15 60.48,-1158.15 60.48,-1158.15 56.45,-1158.15 52.42,-1154.12 52.42,-1150.08 52.42,-1150.08 52.42,-1142.02 52.42,-1142.02 52.42,-1137.98 56.45,-1133.95 60.48,-1133.95 60.48,-1133.95 301.85,-1133.95 301.85,-1133.95 305.88,-1133.95 309.91,-1137.98 309.91,-1142.02 309.91,-1142.02 309.91,-1150.08 309.91,-1150.08 309.91,-1154.12 305.88,-1158.15 301.85,-1158.15"/>
<text text-anchor="middle" x="181.16" y="-1142.9" font-family="Arial" font-size="14.00" fill="#c6c5fe">containers/StakedOperatorContainer.js</text>
</g>
<!-- containers/StakedOperatorContainer.js&#45;&gt;components/table/StakedOperatorTable.js -->
<g id="edge7" class="edge">
<title>containers/StakedOperatorContainer.js&#45;&gt;components/table/StakedOperatorTable.js</title>
<path fill="none" stroke="#757575" d="M309.79,-1146.05C335.2,-1146.05 362.07,-1146.05 388.08,-1146.05"/>
<polygon fill="#757575" stroke="#757575" points="388.39,-1149.55 398.39,-1146.05 388.39,-1142.55 388.39,-1149.55"/>
</g>
<!-- containers/ViewerPowerContainer.js -->
<g id="node37" class="node">
<title>containers/ViewerPowerContainer.js</title>
<path fill="none" stroke="#cfffac" d="M293.23,-1536.15C293.23,-1536.15 69.09,-1536.15 69.09,-1536.15 65.06,-1536.15 61.03,-1532.12 61.03,-1528.08 61.03,-1528.08 61.03,-1520.02 61.03,-1520.02 61.03,-1515.98 65.06,-1511.95 69.09,-1511.95 69.09,-1511.95 293.23,-1511.95 293.23,-1511.95 297.27,-1511.95 301.3,-1515.98 301.3,-1520.02 301.3,-1520.02 301.3,-1528.08 301.3,-1528.08 301.3,-1532.12 297.27,-1536.15 293.23,-1536.15"/>
<text text-anchor="middle" x="181.16" y="-1520.9" font-family="Arial" font-size="14.00" fill="#cfffac">containers/ViewerPowerContainer.js</text>
</g>
<!-- containers/ViewerRoundContainer.js -->
<g id="node38" class="node">
<title>containers/ViewerRoundContainer.js</title>
<path fill="none" stroke="#cfffac" d="M294.31,-1578.15C294.31,-1578.15 68.02,-1578.15 68.02,-1578.15 63.99,-1578.15 59.96,-1574.12 59.96,-1570.08 59.96,-1570.08 59.96,-1562.02 59.96,-1562.02 59.96,-1557.98 63.99,-1553.95 68.02,-1553.95 68.02,-1553.95 294.31,-1553.95 294.31,-1553.95 298.34,-1553.95 302.37,-1557.98 302.37,-1562.02 302.37,-1562.02 302.37,-1570.08 302.37,-1570.08 302.37,-1574.12 298.34,-1578.15 294.31,-1578.15"/>
<text text-anchor="middle" x="181.16" y="-1562.9" font-family="Arial" font-size="14.00" fill="#cfffac">containers/ViewerRoundContainer.js</text>
</g>
<!-- containers/WalletInfoContainer.js -->
<g id="node39" class="node">
<title>containers/WalletInfoContainer.js</title>
<path fill="none" stroke="#cfffac" d="M283.24,-1620.15C283.24,-1620.15 79.09,-1620.15 79.09,-1620.15 75.06,-1620.15 71.02,-1616.12 71.02,-1612.08 71.02,-1612.08 71.02,-1604.02 71.02,-1604.02 71.02,-1599.98 75.06,-1595.95 79.09,-1595.95 79.09,-1595.95 283.24,-1595.95 283.24,-1595.95 287.27,-1595.95 291.31,-1599.98 291.31,-1604.02 291.31,-1604.02 291.31,-1612.08 291.31,-1612.08 291.31,-1616.12 287.27,-1620.15 283.24,-1620.15"/>
<text text-anchor="middle" x="181.16" y="-1604.9" font-family="Arial" font-size="14.00" fill="#cfffac">containers/WalletInfoContainer.js</text>
</g>
<!-- containers/WinnerListContainer.js -->
<g id="node40" class="node">
<title>containers/WinnerListContainer.js</title>
<path fill="none" stroke="#cfffac" d="M285.14,-1662.15C285.14,-1662.15 77.19,-1662.15 77.19,-1662.15 73.15,-1662.15 69.12,-1658.12 69.12,-1654.08 69.12,-1654.08 69.12,-1646.02 69.12,-1646.02 69.12,-1641.98 73.15,-1637.95 77.19,-1637.95 77.19,-1637.95 285.14,-1637.95 285.14,-1637.95 289.18,-1637.95 293.21,-1641.98 293.21,-1646.02 293.21,-1646.02 293.21,-1654.08 293.21,-1654.08 293.21,-1658.12 289.18,-1662.15 285.14,-1662.15"/>
<text text-anchor="middle" x="181.16" y="-1646.9" font-family="Arial" font-size="14.00" fill="#cfffac">containers/WinnerListContainer.js</text>
</g>
<!-- containers/dashboard/DashboardHistory.js -->
<g id="node41" class="node">
<title>containers/dashboard/DashboardHistory.js</title>
<path fill="none" stroke="#cfffac" d="M312.64,-1704.15C312.64,-1704.15 49.68,-1704.15 49.68,-1704.15 45.65,-1704.15 41.62,-1700.12 41.62,-1696.08 41.62,-1696.08 41.62,-1688.02 41.62,-1688.02 41.62,-1683.98 45.65,-1679.95 49.68,-1679.95 49.68,-1679.95 312.64,-1679.95 312.64,-1679.95 316.68,-1679.95 320.71,-1683.98 320.71,-1688.02 320.71,-1688.02 320.71,-1696.08 320.71,-1696.08 320.71,-1700.12 316.68,-1704.15 312.64,-1704.15"/>
<text text-anchor="middle" x="181.16" y="-1688.9" font-family="Arial" font-size="14.00" fill="#cfffac">containers/dashboard/DashboardHistory.js</text>
</g>
<!-- containers/dashboard/DashboardOperatorList.js -->
<g id="node42" class="node">
<title>containers/dashboard/DashboardOperatorList.js</title>
<path fill="none" stroke="#cfffac" d="M330.16,-1746.15C330.16,-1746.15 32.17,-1746.15 32.17,-1746.15 28.14,-1746.15 24.1,-1742.12 24.1,-1738.08 24.1,-1738.08 24.1,-1730.02 24.1,-1730.02 24.1,-1725.98 28.14,-1721.95 32.17,-1721.95 32.17,-1721.95 330.16,-1721.95 330.16,-1721.95 334.19,-1721.95 338.23,-1725.98 338.23,-1730.02 338.23,-1730.02 338.23,-1738.08 338.23,-1738.08 338.23,-1742.12 334.19,-1746.15 330.16,-1746.15"/>
<text text-anchor="middle" x="181.16" y="-1730.9" font-family="Arial" font-size="14.00" fill="#cfffac">containers/dashboard/DashboardOperatorList.js</text>
</g>
<!-- containers/dashboard/DashboardPower.js -->
<g id="node43" class="node">
<title>containers/dashboard/DashboardPower.js</title>
<path fill="none" stroke="#cfffac" d="M311.04,-1788.15C311.04,-1788.15 51.29,-1788.15 51.29,-1788.15 47.26,-1788.15 43.23,-1784.12 43.23,-1780.08 43.23,-1780.08 43.23,-1772.02 43.23,-1772.02 43.23,-1767.98 47.26,-1763.95 51.29,-1763.95 51.29,-1763.95 311.04,-1763.95 311.04,-1763.95 315.07,-1763.95 319.1,-1767.98 319.1,-1772.02 319.1,-1772.02 319.1,-1780.08 319.1,-1780.08 319.1,-1784.12 315.07,-1788.15 311.04,-1788.15"/>
<text text-anchor="middle" x="181.16" y="-1772.9" font-family="Arial" font-size="14.00" fill="#cfffac">containers/dashboard/DashboardPower.js</text>
</g>
<!-- containers/dashboard/DashboardStaking.js -->
<g id="node44" class="node">
<title>containers/dashboard/DashboardStaking.js</title>
<path fill="none" stroke="#cfffac" d="M314.82,-1830.15C314.82,-1830.15 47.51,-1830.15 47.51,-1830.15 43.47,-1830.15 39.44,-1826.12 39.44,-1822.08 39.44,-1822.08 39.44,-1814.02 39.44,-1814.02 39.44,-1809.98 43.47,-1805.95 47.51,-1805.95 47.51,-1805.95 314.82,-1805.95 314.82,-1805.95 318.85,-1805.95 322.89,-1809.98 322.89,-1814.02 322.89,-1814.02 322.89,-1822.08 322.89,-1822.08 322.89,-1826.12 318.85,-1830.15 314.82,-1830.15"/>
<text text-anchor="middle" x="181.16" y="-1814.9" font-family="Arial" font-size="14.00" fill="#cfffac">containers/dashboard/DashboardStaking.js</text>
</g>
<!-- containers/dashboard/components/DashboardHeader.js -->
<g id="node45" class="node">
<title>containers/dashboard/components/DashboardHeader.js</title>
<path fill="none" stroke="#cfffac" d="M354.43,-1872.15C354.43,-1872.15 7.9,-1872.15 7.9,-1872.15 3.87,-1872.15 -0.16,-1868.12 -0.16,-1864.08 -0.16,-1864.08 -0.16,-1856.02 -0.16,-1856.02 -0.16,-1851.98 3.87,-1847.95 7.9,-1847.95 7.9,-1847.95 354.43,-1847.95 354.43,-1847.95 358.46,-1847.95 362.49,-1851.98 362.49,-1856.02 362.49,-1856.02 362.49,-1864.08 362.49,-1864.08 362.49,-1868.12 358.46,-1872.15 354.43,-1872.15"/>
<text text-anchor="middle" x="181.16" y="-1856.9" font-family="Arial" font-size="14.00" fill="#cfffac">containers/dashboard/components/DashboardHeader.js</text>
</g>
<!-- filters/index.js -->
<g id="node46" class="node">
<title>filters/index.js</title>
<path fill="none" stroke="#c6c5fe" d="M223.41,-66.15C223.41,-66.15 138.92,-66.15 138.92,-66.15 134.89,-66.15 130.86,-62.12 130.86,-58.08 130.86,-58.08 130.86,-50.02 130.86,-50.02 130.86,-45.98 134.89,-41.95 138.92,-41.95 138.92,-41.95 223.41,-41.95 223.41,-41.95 227.44,-41.95 231.47,-45.98 231.47,-50.02 231.47,-50.02 231.47,-58.08 231.47,-58.08 231.47,-62.12 227.44,-66.15 223.41,-66.15"/>
<text text-anchor="middle" x="181.16" y="-50.9" font-family="Arial" font-size="14.00" fill="#c6c5fe">filters/index.js</text>
</g>
<!-- filters/index.js&#45;&gt;../config.json -->
<g id="edge8" class="edge">
<title>filters/index.js&#45;&gt;../config.json</title>
<path fill="none" stroke="#757575" d="M231.6,-55.37C268.3,-57.41 319.25,-62.49 362.33,-75.05 416.33,-90.79 474.2,-122.1 507.55,-141.74"/>
<polygon fill="#757575" stroke="#757575" points="505.9,-144.83 516.28,-146.94 509.48,-138.81 505.9,-144.83"/>
</g>
<!-- helpers/Contract.js -->
<g id="node47" class="node">
<title>helpers/Contract.js</title>
<path fill="none" stroke="#cfffac" d="M239.32,-1914.15C239.32,-1914.15 123.01,-1914.15 123.01,-1914.15 118.98,-1914.15 114.95,-1910.12 114.95,-1906.08 114.95,-1906.08 114.95,-1898.02 114.95,-1898.02 114.95,-1893.98 118.98,-1889.95 123.01,-1889.95 123.01,-1889.95 239.32,-1889.95 239.32,-1889.95 243.35,-1889.95 247.38,-1893.98 247.38,-1898.02 247.38,-1898.02 247.38,-1906.08 247.38,-1906.08 247.38,-1910.12 243.35,-1914.15 239.32,-1914.15"/>
<text text-anchor="middle" x="181.16" y="-1898.9" font-family="Arial" font-size="14.00" fill="#cfffac">helpers/Contract.js</text>
</g>
<!-- layouts/AccessWalletLayout.js -->
<g id="node48" class="node">
<title>layouts/AccessWalletLayout.js</title>
<path fill="none" stroke="#cfffac" d="M274.88,-1956.15C274.88,-1956.15 87.45,-1956.15 87.45,-1956.15 83.41,-1956.15 79.38,-1952.12 79.38,-1948.08 79.38,-1948.08 79.38,-1940.02 79.38,-1940.02 79.38,-1935.98 83.41,-1931.95 87.45,-1931.95 87.45,-1931.95 274.88,-1931.95 274.88,-1931.95 278.91,-1931.95 282.95,-1935.98 282.95,-1940.02 282.95,-1940.02 282.95,-1948.08 282.95,-1948.08 282.95,-1952.12 278.91,-1956.15 274.88,-1956.15"/>
<text text-anchor="middle" x="181.16" y="-1940.9" font-family="Arial" font-size="14.00" fill="#cfffac">layouts/AccessWalletLayout.js</text>
</g>
<!-- layouts/DashboardLayout.js -->
<g id="node49" class="node">
<title>layouts/DashboardLayout.js</title>
<path fill="none" stroke="#cfffac" d="M267.37,-1998.15C267.37,-1998.15 94.96,-1998.15 94.96,-1998.15 90.93,-1998.15 86.89,-1994.12 86.89,-1990.08 86.89,-1990.08 86.89,-1982.02 86.89,-1982.02 86.89,-1977.98 90.93,-1973.95 94.96,-1973.95 94.96,-1973.95 267.37,-1973.95 267.37,-1973.95 271.4,-1973.95 275.44,-1977.98 275.44,-1982.02 275.44,-1982.02 275.44,-1990.08 275.44,-1990.08 275.44,-1994.12 271.4,-1998.15 267.37,-1998.15"/>
<text text-anchor="middle" x="181.16" y="-1982.9" font-family="Arial" font-size="14.00" fill="#cfffac">layouts/DashboardLayout.js</text>
</g>
<!-- layouts/HistoryLayout.js -->
<g id="node50" class="node">
<title>layouts/HistoryLayout.js</title>
<path fill="none" stroke="#c6c5fe" d="M254.94,-1032.15C254.94,-1032.15 107.39,-1032.15 107.39,-1032.15 103.36,-1032.15 99.32,-1028.12 99.32,-1024.08 99.32,-1024.08 99.32,-1016.02 99.32,-1016.02 99.32,-1011.98 103.36,-1007.95 107.39,-1007.95 107.39,-1007.95 254.94,-1007.95 254.94,-1007.95 258.97,-1007.95 263.01,-1011.98 263.01,-1016.02 263.01,-1016.02 263.01,-1024.08 263.01,-1024.08 263.01,-1028.12 258.97,-1032.15 254.94,-1032.15"/>
<text text-anchor="middle" x="181.16" y="-1016.9" font-family="Arial" font-size="14.00" fill="#c6c5fe">layouts/HistoryLayout.js</text>
</g>
<!-- layouts/HistoryLayout.js&#45;&gt;components/table/HistoryTable.js -->
<g id="edge9" class="edge">
<title>layouts/HistoryLayout.js&#45;&gt;components/table/HistoryTable.js</title>
<path fill="none" stroke="#757575" d="M263.27,-1020.05C308.37,-1020.05 365.37,-1020.05 415.55,-1020.05"/>
<polygon fill="#757575" stroke="#757575" points="415.82,-1023.55 425.82,-1020.05 415.82,-1016.55 415.82,-1023.55"/>
</g>
<!-- layouts/MainLayout.js -->
<g id="node51" class="node">
<title>layouts/MainLayout.js</title>
<path fill="none" stroke="#cfffac" d="M248.23,-2040.15C248.23,-2040.15 114.1,-2040.15 114.1,-2040.15 110.07,-2040.15 106.04,-2036.12 106.04,-2032.08 106.04,-2032.08 106.04,-2024.02 106.04,-2024.02 106.04,-2019.98 110.07,-2015.95 114.1,-2015.95 114.1,-2015.95 248.23,-2015.95 248.23,-2015.95 252.26,-2015.95 256.29,-2019.98 256.29,-2024.02 256.29,-2024.02 256.29,-2032.08 256.29,-2032.08 256.29,-2036.12 252.26,-2040.15 248.23,-2040.15"/>
<text text-anchor="middle" x="181.16" y="-2024.9" font-family="Arial" font-size="14.00" fill="#cfffac">layouts/MainLayout.js</text>
</g>
<!-- layouts/NetworkGuideLayout.js -->
<g id="node52" class="node">
<title>layouts/NetworkGuideLayout.js</title>
<path fill="none" stroke="#cfffac" d="M277.58,-2082.15C277.58,-2082.15 84.75,-2082.15 84.75,-2082.15 80.71,-2082.15 76.68,-2078.12 76.68,-2074.08 76.68,-2074.08 76.68,-2066.02 76.68,-2066.02 76.68,-2061.98 80.71,-2057.95 84.75,-2057.95 84.75,-2057.95 277.58,-2057.95 277.58,-2057.95 281.62,-2057.95 285.65,-2061.98 285.65,-2066.02 285.65,-2066.02 285.65,-2074.08 285.65,-2074.08 285.65,-2078.12 281.62,-2082.15 277.58,-2082.15"/>
<text text-anchor="middle" x="181.16" y="-2066.9" font-family="Arial" font-size="14.00" fill="#cfffac">layouts/NetworkGuideLayout.js</text>
</g>
<!-- layouts/OperatorInfoEditLayout.js -->
<g id="node53" class="node">
<title>layouts/OperatorInfoEditLayout.js</title>
<path fill="none" stroke="#c6c5fe" d="M284.6,-24.15C284.6,-24.15 77.72,-24.15 77.72,-24.15 73.69,-24.15 69.66,-20.12 69.66,-16.08 69.66,-16.08 69.66,-8.02 69.66,-8.02 69.66,-3.98 73.69,0.05 77.72,0.05 77.72,0.05 284.6,0.05 284.6,0.05 288.64,0.05 292.67,-3.98 292.67,-8.02 292.67,-8.02 292.67,-16.08 292.67,-16.08 292.67,-20.12 288.64,-24.15 284.6,-24.15"/>
<text text-anchor="middle" x="181.16" y="-8.9" font-family="Arial" font-size="14.00" fill="#c6c5fe">layouts/OperatorInfoEditLayout.js</text>
</g>
<!-- layouts/OperatorInfoEditLayout.js&#45;&gt;../config.json -->
<g id="edge10" class="edge">
<title>layouts/OperatorInfoEditLayout.js&#45;&gt;../config.json</title>
<path fill="none" stroke="#757575" d="M292.96,-15.95C316.41,-19.24 340.62,-24.57 362.33,-33.05 425.32,-57.65 486.25,-110.83 516.29,-139.61"/>
<polygon fill="#757575" stroke="#757575" points="513.98,-142.24 523.59,-146.7 518.86,-137.22 513.98,-142.24"/>
</g>
<!-- layouts/OperatorInfoLayout.js -->
<g id="node54" class="node">
<title>layouts/OperatorInfoLayout.js</title>
<path fill="none" stroke="#cfffac" d="M272.48,-2124.15C272.48,-2124.15 89.85,-2124.15 89.85,-2124.15 85.82,-2124.15 81.78,-2120.12 81.78,-2116.08 81.78,-2116.08 81.78,-2108.02 81.78,-2108.02 81.78,-2103.98 85.82,-2099.95 89.85,-2099.95 89.85,-2099.95 272.48,-2099.95 272.48,-2099.95 276.51,-2099.95 280.55,-2103.98 280.55,-2108.02 280.55,-2108.02 280.55,-2116.08 280.55,-2116.08 280.55,-2120.12 276.51,-2124.15 272.48,-2124.15"/>
<text text-anchor="middle" x="181.16" y="-2108.9" font-family="Arial" font-size="14.00" fill="#cfffac">layouts/OperatorInfoLayout.js</text>
</g>
<!-- layouts/OperatorListLayout.js -->
<g id="node55" class="node">
<title>layouts/OperatorListLayout.js</title>
<path fill="none" stroke="#cfffac" d="M271.92,-2166.15C271.92,-2166.15 90.41,-2166.15 90.41,-2166.15 86.38,-2166.15 82.35,-2162.12 82.35,-2158.08 82.35,-2158.08 82.35,-2150.02 82.35,-2150.02 82.35,-2145.98 86.38,-2141.95 90.41,-2141.95 90.41,-2141.95 271.92,-2141.95 271.92,-2141.95 275.95,-2141.95 279.98,-2145.98 279.98,-2150.02 279.98,-2150.02 279.98,-2158.08 279.98,-2158.08 279.98,-2162.12 275.95,-2166.15 271.92,-2166.15"/>
<text text-anchor="middle" x="181.16" y="-2150.9" font-family="Arial" font-size="14.00" fill="#cfffac">layouts/OperatorListLayout.js</text>
</g>
<!-- layouts/PowerTONLayout.js -->
<g id="node56" class="node">
<title>layouts/PowerTONLayout.js</title>
<path fill="none" stroke="#cfffac" d="M267.86,-2208.15C267.86,-2208.15 94.47,-2208.15 94.47,-2208.15 90.43,-2208.15 86.4,-2204.12 86.4,-2200.08 86.4,-2200.08 86.4,-2192.02 86.4,-2192.02 86.4,-2187.98 90.43,-2183.95 94.47,-2183.95 94.47,-2183.95 267.86,-2183.95 267.86,-2183.95 271.9,-2183.95 275.93,-2187.98 275.93,-2192.02 275.93,-2192.02 275.93,-2200.08 275.93,-2200.08 275.93,-2204.12 271.9,-2208.15 267.86,-2208.15"/>
<text text-anchor="middle" x="181.16" y="-2192.9" font-family="Arial" font-size="14.00" fill="#cfffac">layouts/PowerTONLayout.js</text>
</g>
<!-- layouts/StakeInfoLayout.js -->
<g id="node57" class="node">
<title>layouts/StakeInfoLayout.js</title>
<path fill="none" stroke="#cfffac" d="M263.03,-2250.15C263.03,-2250.15 99.3,-2250.15 99.3,-2250.15 95.26,-2250.15 91.23,-2246.12 91.23,-2242.08 91.23,-2242.08 91.23,-2234.02 91.23,-2234.02 91.23,-2229.98 95.26,-2225.95 99.3,-2225.95 99.3,-2225.95 263.03,-2225.95 263.03,-2225.95 267.07,-2225.95 271.1,-2229.98 271.1,-2234.02 271.1,-2234.02 271.1,-2242.08 271.1,-2242.08 271.1,-2246.12 267.07,-2250.15 263.03,-2250.15"/>
<text text-anchor="middle" x="181.16" y="-2234.9" font-family="Arial" font-size="14.00" fill="#cfffac">layouts/StakeInfoLayout.js</text>
</g>
<!-- madge.js -->
<g id="node58" class="node">
<title>madge.js</title>
<path fill="none" stroke="#cfffac" d="M209.41,-2292.15C209.41,-2292.15 152.92,-2292.15 152.92,-2292.15 148.89,-2292.15 144.86,-2288.12 144.86,-2284.08 144.86,-2284.08 144.86,-2276.02 144.86,-2276.02 144.86,-2271.98 148.89,-2267.95 152.92,-2267.95 152.92,-2267.95 209.41,-2267.95 209.41,-2267.95 213.44,-2267.95 217.47,-2271.98 217.47,-2276.02 217.47,-2276.02 217.47,-2284.08 217.47,-2284.08 217.47,-2288.12 213.44,-2292.15 209.41,-2292.15"/>
<text text-anchor="middle" x="181.16" y="-2276.9" font-family="Arial" font-size="14.00" fill="#cfffac">madge.js</text>
</g>
<!-- main.js -->
<g id="node59" class="node">
<title>main.js</title>
<path fill="none" stroke="#c6c5fe" d="M203.44,-360.15C203.44,-360.15 158.88,-360.15 158.88,-360.15 154.85,-360.15 150.82,-356.12 150.82,-352.08 150.82,-352.08 150.82,-344.02 150.82,-344.02 150.82,-339.98 154.85,-335.95 158.88,-335.95 158.88,-335.95 203.44,-335.95 203.44,-335.95 207.48,-335.95 211.51,-339.98 211.51,-344.02 211.51,-344.02 211.51,-352.08 211.51,-352.08 211.51,-356.12 207.48,-360.15 203.44,-360.15"/>
<text text-anchor="middle" x="181.16" y="-344.9" font-family="Arial" font-size="14.00" fill="#c6c5fe">main.js</text>
</g>
<!-- main.js&#45;&gt;App.js -->
<g id="edge11" class="edge">
<title>main.js&#45;&gt;App.js</title>
<path fill="none" stroke="#757575" d="M211.5,-351.43C247.16,-355.54 309.17,-362.73 362.33,-369.05 409.53,-374.66 463.93,-381.27 499.02,-385.56"/>
<polygon fill="#757575" stroke="#757575" points="498.9,-389.07 509.26,-386.81 499.75,-382.12 498.9,-389.07"/>
</g>
<!-- router/index.js -->
<g id="node60" class="node">
<title>router/index.js</title>
<path fill="none" stroke="#cfffac" d="M580.55,-360.15C580.55,-360.15 492.82,-360.15 492.82,-360.15 488.79,-360.15 484.75,-356.12 484.75,-352.08 484.75,-352.08 484.75,-344.02 484.75,-344.02 484.75,-339.98 488.79,-335.95 492.82,-335.95 492.82,-335.95 580.55,-335.95 580.55,-335.95 584.58,-335.95 588.61,-339.98 588.61,-344.02 588.61,-344.02 588.61,-352.08 588.61,-352.08 588.61,-356.12 584.58,-360.15 580.55,-360.15"/>
<text text-anchor="middle" x="536.68" y="-344.9" font-family="Arial" font-size="14.00" fill="#cfffac">router/index.js</text>
</g>
<!-- main.js&#45;&gt;router/index.js -->
<g id="edge12" class="edge">
<title>main.js&#45;&gt;router/index.js</title>
<path fill="none" stroke="#757575" d="M211.4,-348.05C268.87,-348.05 397.64,-348.05 474.51,-348.05"/>
<polygon fill="#757575" stroke="#757575" points="474.53,-351.55 484.53,-348.05 474.53,-344.55 474.53,-351.55"/>
</g>
<!-- store/index.js -->
<g id="node61" class="node">
<title>store/index.js</title>
<path fill="none" stroke="#cfffac" d="M578.1,-318.15C578.1,-318.15 495.27,-318.15 495.27,-318.15 491.23,-318.15 487.2,-314.12 487.2,-310.08 487.2,-310.08 487.2,-302.02 487.2,-302.02 487.2,-297.98 491.23,-293.95 495.27,-293.95 495.27,-293.95 578.1,-293.95 578.1,-293.95 582.13,-293.95 586.17,-297.98 586.17,-302.02 586.17,-302.02 586.17,-310.08 586.17,-310.08 586.17,-314.12 582.13,-318.15 578.1,-318.15"/>
<text text-anchor="middle" x="536.68" y="-302.9" font-family="Arial" font-size="14.00" fill="#cfffac">store/index.js</text>
</g>
<!-- main.js&#45;&gt;store/index.js -->
<g id="edge13" class="edge">
<title>main.js&#45;&gt;store/index.js</title>
<path fill="none" stroke="#757575" d="M211.5,-344.67C247.16,-340.55 309.17,-333.37 362.33,-327.05 400.52,-322.51 443.44,-317.31 477.02,-313.22"/>
<polygon fill="#757575" stroke="#757575" points="477.62,-316.68 487.12,-311.99 476.77,-309.73 477.62,-316.68"/>
</g>
</g>
</svg>
