<svg xmlns="http://www.w3.org/2000/svg" width="235" height="82" viewBox="0 0 235 82">
    <path data-name="사각형 154" transform="translate(0 .001)" style="fill:none" d="M0 0h235v82H0z"/>
    <g data-name="그룹 314">
        <path d="M13.906 0H68.87a13.906 13.906 0 0 1 13.906 13.906A13.906 13.906 0 0 1 68.87 27.813H1.115A1.115 1.115 0 0 1 0 26.7V13.906A13.906 13.906 0 0 1 13.906 0z" transform="translate(152.224)" style="fill:#fff"/>
        <g data-name="그룹 312">
            <path data-name="패스 86" d="m1116.451 3829.418 1.6-1.558a4.613 4.613 0 0 0 3.529 1.7c1.738 0 2.86-.818 3.073-2.023.231-1.3-.674-1.713-1.9-2.3l-1.84-.857c-1.283-.585-2.635-1.674-2.266-3.758.4-2.259 2.692-3.951 5.427-3.951a5.14 5.14 0 0 1 4.035 1.808l-1.446 1.445a3.828 3.828 0 0 0-2.938-1.287c-1.465 0-2.546.7-2.75 1.85-.217 1.224.854 1.689 1.943 2.158l1.824.838c1.573.716 2.617 1.77 2.245 3.874-.406 2.295-2.651 4.166-5.8 4.166a5.991 5.991 0 0 1-4.736-2.105z" transform="translate(-954.746 -3810.768)" style="fill:#2a72e5"/>
            <path data-name="패스 87" d="M1178.2 3817.6h2.227l-1.894 10.708h-2.227zm.277-3.328a1.631 1.631 0 0 1 1.66-1.325 1.1 1.1 0 0 1 1.212 1.325 1.668 1.668 0 0 1-1.682 1.322 1.087 1.087 0 0 1-1.188-1.32z" transform="translate(-1002.348 -3807.81)" style="fill:#2a72e5"/>
            <path data-name="패스 88" d="M1205.016 3834.693h1.837l-.089 1.5h.059a5.74 5.74 0 0 1 3.634-1.773 2.326 2.326 0 0 1 2.621 1.967 6.1 6.1 0 0 1 3.844-1.967c2.246 0 3.033 1.519 2.55 4.244l-1.192 6.736h-2.246l1.143-6.465c.327-1.847-.127-2.587-1.339-2.587a4.439 4.439 0 0 0-2.68 1.459l-1.343 7.593h-2.247l1.144-6.465c.327-1.847-.109-2.587-1.339-2.587a4.488 4.488 0 0 0-2.68 1.459l-1.343 7.593h-2.227z" transform="translate(-1023.675 -3824.897)" style="fill:#2a72e5"/>
            <path data-name="패스 89" d="M1291.351 3834.693h1.837l-.032 1.167h.059a6.522 6.522 0 0 1 3.556-1.442c2.736 0 3.877 2.161 3.294 5.45-.649 3.68-3.23 5.784-5.652 5.784a3.677 3.677 0 0 1-2.619-1.209l-.266 1.83-.612 3.468h-2.228zm6.383 5.217c.4-2.238-.083-3.623-1.879-3.623a4.6 4.6 0 0 0-2.79 1.307l-.926 5.235a3.054 3.054 0 0 0 2.172.973c1.563-.002 2.979-1.383 3.423-3.893z" transform="translate(-1091.725 -3824.897)" style="fill:#2a72e5"/>
            <path data-name="패스 90" d="m1353.8 3825.187 2.3-13h2.227l-2.321 13.12c-.108.606.128.821.4.821a1.642 1.642 0 0 0 .378-.039l-.007 1.689a3.776 3.776 0 0 1-1.241.179c-1.621-.004-2.043-1.033-1.736-2.77z" transform="translate(-1143.432 -3807.199)" style="fill:#2a72e5"/>
            <path data-name="패스 91" d="M1380.29 3840.062c.615-3.483 3.381-5.644 5.9-5.644 2.852 0 4.015 2.044 3.477 5.08a6.291 6.291 0 0 1-.3 1.131h-6.967c-.186 2.045.886 3.268 2.742 3.268a5.266 5.266 0 0 0 2.7-.8l.529 1.424a7.538 7.538 0 0 1-3.833 1.128c-2.913.003-4.872-2.063-4.248-5.587zm7.517-.97c.326-1.851-.324-2.919-1.887-2.919a3.627 3.627 0 0 0-3.271 2.919z" transform="translate(-1164.482 -3824.897)" style="fill:#2a72e5"/>
        </g>
        <g data-name="그룹 313">
            <path data-name="패스 92" d="m589.135 3978.919 2.188-5.485a18.986 18.986 0 0 0 11.57 3.739 8.379 8.379 0 0 0 4.347-.934 2.92 2.92 0 0 0 1.531-2.617 2.753 2.753 0 0 0-1.063-2.277 9.936 9.936 0 0 0-3.627-1.462l-5.254-1.185q-8.631-1.871-8.63-8.786a8.346 8.346 0 0 1 1.625-5.08 10.687 10.687 0 0 1 4.566-3.459 17.312 17.312 0 0 1 6.817-1.248 20.663 20.663 0 0 1 6.5 1.027 17.157 17.157 0 0 1 5.5 2.963l-2.315 5.295a16.319 16.319 0 0 0-9.756-3.486 7.49 7.49 0 0 0-4.19 1 3.116 3.116 0 0 0-1.5 2.74 2.781 2.781 0 0 0 .906 2.182 7.526 7.526 0 0 0 3.1 1.369l5.379 1.185q4.69 1.057 6.848 3.274a7.9 7.9 0 0 1 2.158 5.763 8.115 8.115 0 0 1-3.5 6.918q-3.5 2.552-9.568 2.555-8.567-.004-13.632-3.991z" transform="translate(-584.135 -3914.369)" style="fill:#fff"/>
            <path data-name="패스 93" d="M698.235 3935.209v14.091q0 5.543 5.192 5.548a11.251 11.251 0 0 0 3.126-.5v6.169a14.834 14.834 0 0 1-5 .746q-5.379 0-8.256-2.993t-2.877-8.6v-14.46h-6.066v-5.858h6.066v-7.667l7.818-2.617v10.284h8.381v5.858z" transform="translate(-650.208 -3892.785)" style="fill:#fff"/>
            <path data-name="패스 94" d="M800.9 3950.934v31.474h-7.692v-5.05a10.114 10.114 0 0 1-4.128 4.083 12.619 12.619 0 0 1-6.13 1.465 13.5 13.5 0 0 1-7.316-2 13.137 13.137 0 0 1-4.941-5.667 19.652 19.652 0 0 1-1.751-8.539 19.994 19.994 0 0 1 1.783-8.634 13.906 13.906 0 0 1 4.972-5.855 12.934 12.934 0 0 1 7.254-2.089 12.613 12.613 0 0 1 6.13 1.463 10.154 10.154 0 0 1 4.128 4.086v-4.739zm-9.819 23.186q2.126-2.681 2.127-7.542 0-4.987-2.127-7.667a7.3 7.3 0 0 0-6.066-2.677 7.2 7.2 0 0 0-6.035 2.776q-2.158 2.767-2.158 7.694 0 4.862 2.158 7.476a7.458 7.458 0 0 0 6.1 2.62 7.22 7.22 0 0 0 6.002-2.68z" transform="translate(-708.908 -3914.369)" style="fill:#fff"/>
            <path data-name="패스 95" d="m922.715 3951.456-13.822-14.522v14.522h-7.755v-45.874h7.755v28.3l13.009-13.836h9.443l-14.2 15.021 15.322 16.391z" transform="translate(-800.641 -3883.413)" style="fill:#fff"/>
            <path data-name="패스 96" d="M1020.78 3905.988v7.664h-8.692v-7.664zm-8.192 14.271h7.756v31.477h-7.756z" transform="translate(-877.631 -3883.695)" style="fill:#fff"/>
            <path data-name="패스 97" d="M1095.309 3963.087v19.321h-7.817v-18.945c0-2.5-.479-4.31-1.439-5.456a5.47 5.47 0 0 0-4.441-1.713 7.621 7.621 0 0 0-5.753 2.274 8.31 8.31 0 0 0-2.188 6.017v17.823h-7.756v-22.56a71.356 71.356 0 0 0-.5-8.914h7.318l.562 5.172a11.431 11.431 0 0 1 4.411-4.426 12.662 12.662 0 0 1 6.285-1.555q11.318 0 11.318 12.962z" transform="translate(-914.635 -3914.369)" style="fill:#fff"/>
            <path data-name="패스 98" d="M1216.807 3950.934v30.477q0 7.351-4.064 11.156t-11.946 3.8a26.362 26.362 0 0 1-12.884-3.056l1.251-5.918a24.637 24.637 0 0 0 11.444 2.99q8.443 0 8.443-8.353v-6.23a11 11 0 0 1-4.191 4.148 12.186 12.186 0 0 1-6.192 1.588 13.811 13.811 0 0 1-7.348-1.964 13.191 13.191 0 0 1-5-5.548 19.729 19.729 0 0 1 0-16.388 13.251 13.251 0 0 1 5-5.551 13.867 13.867 0 0 1 7.348-1.961 12.93 12.93 0 0 1 6.223 1.463 10.112 10.112 0 0 1 4.159 4.086v-4.739zm-9.974 21.938a12.348 12.348 0 0 0 .031-14.083 8.591 8.591 0 0 0-12.226 0 12.275 12.275 0 0 0 0 14.083 8.555 8.555 0 0 0 12.2 0z" transform="translate(-997.297 -3914.369)" style="fill:#fff"/>
        </g>
    </g>
</svg>
