<svg xmlns="http://www.w3.org/2000/svg" width="113.001" height="40" viewBox="0 0 113.001 40">
    <g data-name="그룹 317">
        <g data-name="그룹 316">
            <path data-name="패스 99" d="M53.811 109.648c-.093.292-.207.686-.281.985a1.485 1.485 0 0 1 .77-.967 4 4 0 0 1 3.166-1.531v-.011c-2.274-.649-2.98.094-3.178.443a7.635 7.635 0 0 0-.477 1.081" transform="translate(-11.348 -102.474)" style="fill:#fff"/>
            <path data-name="패스 100" d="m77.513 81.149-.335.318c.385-.313 1.02-.24 2 .23a4.22 4.22 0 0 1 .8-1.014c-.463-.336-.933-.628-1.23-.49a10.566 10.566 0 0 0-1.228.956" transform="translate(-32.693 -77.445)" style="fill:#fff"/>
            <path data-name="패스 101" d="M117.926 60.665c-.347.126-.81.3-1.154.435a4.181 4.181 0 0 1 .482.615 11.489 11.489 0 0 1 1.614-.715c-.093-.386-.116-.578 0-.627-.284.086-.664.192-.945.29" transform="translate(-68.432 -59.575)" style="fill:#fff"/>
            <path data-name="패스 102" d="M165.282 52.136c-.528.043-1.232.108-1.759.169-.275.068-.4.166-.533.577a20.055 20.055 0 0 1 2.173-.288 1.187 1.187 0 0 1 .944-.495l-.825.036" transform="translate(-110.149 -52.1)" style="fill:#fff"/>
            <path data-name="패스 103" d="M218.4 53.547a54.024 54.024 0 0 0-1.65-.226 2.128 2.128 0 0 0-1.414.333 21.619 21.619 0 0 1 2.261.236 2.85 2.85 0 0 1 1.774-.154c-.291-.057-.678-.141-.971-.189" transform="translate(-157.395 -53.195)" style="fill:#fff"/>
            <path data-name="패스 104" d="M268.351 65.168c-.366-.169-.856-.39-1.228-.544a3.817 3.817 0 0 0-2.313-.187 14.084 14.084 0 0 1 1.768.675 4.336 4.336 0 0 1 2.89.671c-.332-.191-.774-.448-1.116-.615" transform="translate(-202.053 -63.154)" style="fill:#fff"/>
            <path data-name="패스 105" d="M306.463 87.742a8.327 8.327 0 0 0-1.015-1.983l-.262-.358a5.03 5.03 0 0 0-3.975-2.124 5.678 5.678 0 0 1 1.013.985c2.672.375 4.511 2.708 4.685 5.941a8.213 8.213 0 0 0-.446-2.462" transform="translate(-234.91 -80.263)" style="fill:#fff"/>
            <path data-name="패스 106" d="M312.592 119.587a11.55 11.55 0 0 0 1.448-1.1c.17-.165.4-.382.563-.555 3.332-3.834 1.818-9.367-1.76-10.37a2.7 2.7 0 0 1 .062.531v.1a2.66 2.66 0 0 1-.062.523c3.828 1.715 3.452 8.56-.61 11.1l.359-.221" transform="translate(-244.858 -102.199)" style="fill:#fff"/>
            <path data-name="패스 107" d="M256.635 144.857a42.6 42.6 0 0 0 1.654-.461c4.9-1.828 5.682-9.294 2.931-11.091a5.437 5.437 0 0 1-1.012.954c2.327 2.548-.058 9.745-4.425 10.778l.852-.18" transform="translate(-193.905 -125.453)" style="fill:#fff"/>
            <path data-name="패스 108" d="M194.959 163.759c.462 0 1.078-.011 1.54-.029 4.07-.418 6.967-7.838 5.959-10.16a13.667 13.667 0 0 1-1.768.624c-.009 2.968-4.033 9.6-6.919 9.525.357.013.832.039 1.189.039" transform="translate(-137.931 -143.759)" style="fill:#fff"/>
            <path data-name="패스 109" d="M137.955 173.636c.455.109 1.062.249 1.519.341 1.7.124 5.974-5.6 7.553-8.625a21.5 21.5 0 0 1-2.267.17c-1.233 1.188-4.485 4.925-5.124 5.662-1.647 1.9-2.258 2.258-2.481 2.226l.8.227" transform="translate(-86.83 -154.402)" style="fill:#fff"/>
            <path data-name="패스 110" d="M91.791 168.666a13.66 13.66 0 0 0 1.539.885l.044.021a26.726 26.726 0 0 1 7.263-7 20.306 20.306 0 0 1-2.168-.351c-3.733 1.421-7.543 5.767-6.887 6.3l.21.144" transform="translate(-45.627 -151.574)" style="fill:#fff"/>
            <path data-name="패스 111" d="M60.641 152.309c.177.236.415.549.6.774-.841-1.272 2.7-4.566 6.372-5.334a11.856 11.856 0 0 1-1.613-.76c-3.375.364-6.588 2.739-5.926 4.382.161.288.379.672.565.938" transform="translate(-17.179 -137.814)" style="fill:#fff"/>
            <path data-name="패스 112" d="M51.666 126.584v.161c.014.278.038.649.069.926-.091-1.806 2.672-2.974 5.209-2.891a4.4 4.4 0 0 1-.8-1.039 4.9 4.9 0 0 0-3.923.784 4.377 4.377 0 0 0-.556 2.06" transform="translate(-9.665 -116.747)" style="fill:#fff"/>
        </g>
    </g>
    <g data-name="그룹 318">
        <path data-name="패스 113" d="M436.83 110.9h-7.418v1.487h2.844v8.405h1.755v-8.405h2.819z" transform="translate(-429.412 -80.899)" style="fill:#fff"/>
        <path data-name="패스 114" d="M498.6 132.78a3.084 3.084 0 0 0-1.1-.657 4.575 4.575 0 0 0-2.858 0 3.055 3.055 0 0 0-1.083.657 2.884 2.884 0 0 0-.708 1.062 3.943 3.943 0 0 0-.241 1.448v.868a3.958 3.958 0 0 0 .241 1.443 2.86 2.86 0 0 0 .708 1.069 3.076 3.076 0 0 0 1.083.658 4.594 4.594 0 0 0 2.858 0 3.009 3.009 0 0 0 1.1-.658 2.912 2.912 0 0 0 .7-1.069 3.955 3.955 0 0 0 .25-1.443v-.868a3.949 3.949 0 0 0-.25-1.448 2.937 2.937 0 0 0-.7-1.062zm-1.831 5.157a2.264 2.264 0 0 1-1.379 0 1.34 1.34 0 0 1-.542-.327 1.42 1.42 0 0 1-.361-.592 2.58 2.58 0 0 1-.136-.888v-.812a1.952 1.952 0 0 1 .467-1.477 2.041 2.041 0 0 1 2.517 0 1.934 1.934 0 0 1 .473 1.477v.813a2.573 2.573 0 0 1-.136.888 1.476 1.476 0 0 1-.36.592 1.461 1.461 0 0 1-.542.326z" transform="translate(-485.57 -99.56)" style="fill:#fff"/>
        <path data-name="패스 115" d="M573.227 113.394h-2.192l-2.708 3.072V110.9H566.6v9.892h1.73v-2.2l.808-.905 1.986 3.1.009.011h2.207l-2.988-4.33z" transform="translate(-551.31 -80.899)" style="fill:#fff"/>
        <path data-name="패스 116" d="M636.2 132.516a2.986 2.986 0 0 0-.954-.462 4.339 4.339 0 0 0-1.194-.16 4.123 4.123 0 0 0-1.659.3 6.75 6.75 0 0 0-1.279.688l-.02.011.858 1.267.019-.016a3.276 3.276 0 0 1 2.066-.727 1.367 1.367 0 0 1 .979.293 1.273 1.273 0 0 1 .311.964v.258h-1.661a4.664 4.664 0 0 0-1.318.163 2.346 2.346 0 0 0-.867.443 1.606 1.606 0 0 0-.477.67 2.4 2.4 0 0 0-.135.843v.427a1.881 1.881 0 0 0 .662 1.532 2.834 2.834 0 0 0 1.856.545 3.156 3.156 0 0 0 .616-.066 3.274 3.274 0 0 0 .622-.2 2.22 2.22 0 0 0 .531-.323 1.216 1.216 0 0 0 .306-.359l.025.839h1.551v-5.187a2.118 2.118 0 0 0-.221-1.005 2.162 2.162 0 0 0-.617-.738zm-.873 3.772v.178a4.079 4.079 0 0 1-.041.67.863.863 0 0 1-.261.474 2.068 2.068 0 0 1-1.5.487 1.174 1.174 0 0 1-.737-.2.664.664 0 0 1-.251-.543v-.154a.9.9 0 0 1 .256-.663 1.319 1.319 0 0 1 .917-.248z" transform="translate(-608.426 -99.56)" style="fill:#fff"/>
        <path data-name="패스 117" d="M710.234 132.594a2.28 2.28 0 0 0-.818-.526 2.69 2.69 0 0 0-.979-.174 2.987 2.987 0 0 0-1.379.284 2.651 2.651 0 0 0-.9.813 1.657 1.657 0 0 0-.728-.788 2.516 2.516 0 0 0-1.244-.309 2.457 2.457 0 0 0-1.239.3 2.077 2.077 0 0 0-.782.778v-.915h-1.625v7.4h1.715v-4.532a1.5 1.5 0 0 1 .381-1.118 1.285 1.285 0 0 1 .958-.366 1.824 1.824 0 0 1 .512.072.927.927 0 0 1 .411.253 1.275 1.275 0 0 1 .276.485 2.239 2.239 0 0 1 .11.768v4.439h1.731v-4.466a1.941 1.941 0 0 1 .121-.753 1.222 1.222 0 0 1 .3-.478.955.955 0 0 1 .417-.248 1.813 1.813 0 0 1 .993-.006.932.932 0 0 1 .411.24 1.176 1.176 0 0 1 .291.489 2.589 2.589 0 0 1 .11.809v4.412h1.726v-4.76a3.268 3.268 0 0 0-.211-1.222 2.414 2.414 0 0 0-.558-.881z" transform="translate(-670.332 -99.56)" style="fill:#fff"/>
        <path data-name="패스 118" d="M811.035 132.516a2.843 2.843 0 0 0-.943-.462 4.333 4.333 0 0 0-1.194-.16 4.165 4.165 0 0 0-1.665.3 6.925 6.925 0 0 0-1.273.688l-.02.011.861 1.267.011-.016a3.294 3.294 0 0 1 2.076-.727 1.378 1.378 0 0 1 .974.293 1.308 1.308 0 0 1 .3.964v.258h-1.655a4.564 4.564 0 0 0-1.314.163 2.417 2.417 0 0 0-.872.443 1.563 1.563 0 0 0-.473.67 2.311 2.311 0 0 0-.141.843v.427a1.881 1.881 0 0 0 .662 1.532 2.858 2.858 0 0 0 1.865.545 3.128 3.128 0 0 0 .6-.066 3.233 3.233 0 0 0 .632-.2 2.14 2.14 0 0 0 .53-.323 1.2 1.2 0 0 0 .3-.359l.029.839h1.556v-5.187a2.07 2.07 0 0 0-.853-1.747zm-.872 3.772v.178a5.863 5.863 0 0 1-.031.67.776.776 0 0 1-.271.474 2.041 2.041 0 0 1-1.494.487 1.189 1.189 0 0 1-.742-.2.66.66 0 0 1-.251-.543v-.154a.876.876 0 0 1 .261-.663 1.315 1.315 0 0 1 .912-.248z" transform="translate(-763.78 -99.56)" style="fill:#fff"/>
        <path data-name="패스 119" d="M882.014 113.394h-2.187l-2.72 3.072V110.9h-1.725v9.892h1.725v-2.2l.813-.905 1.986 3.1.011.011h2.207l-2.99-4.33z" transform="translate(-825.695 -80.899)" style="fill:#fff"/>
        <path data-name="패스 120" d="m977.576 116.97-3.282-6.058-.01-.014h-2.006v9.895h1.654v-6.838s.441.767.554.983l3.311 5.841v.014h2V110.9h-1.646v7.131s-.464-.882-.575-1.061z" transform="translate(-911.782 -80.899)" style="fill:#fff"/>
        <path data-name="패스 121" d="M1057.819 132.708a2.634 2.634 0 0 0-1-.613 4.275 4.275 0 0 0-1.313-.2 4.2 4.2 0 0 0-1.324.2 2.792 2.792 0 0 0-1.065.625 2.666 2.666 0 0 0-.711 1.075 3.854 3.854 0 0 0-.263 1.55v.76a4.367 4.367 0 0 0 .273 1.656 2.865 2.865 0 0 0 .772 1.063 2.91 2.91 0 0 0 1.093.565 4.644 4.644 0 0 0 1.244.168 6.216 6.216 0 0 0 1.766-.214 4.236 4.236 0 0 0 1.25-.577l.042-.013-.722-1.251-.038.011a4.765 4.765 0 0 1-1.046.458 4.4 4.4 0 0 1-1.161.139 1.608 1.608 0 0 1-1.807-1.73h4.952v-1.236a3.931 3.931 0 0 0-.257-1.418 3.024 3.024 0 0 0-.685-1.018zm-2.328.62a2.049 2.049 0 0 1 .73.118 1.325 1.325 0 0 1 .494.316 1.129 1.129 0 0 1 .278.457 1.915 1.915 0 0 1 .091.554v.3h-3.279v-.259a1.477 1.477 0 0 1 .43-1.052 1.681 1.681 0 0 1 1.256-.434z" transform="translate(-982.761 -99.56)" style="fill:#fff"/>
        <path data-name="패스 122" d="M1121.3 119.2a3.528 3.528 0 0 1-.552.165 2.61 2.61 0 0 1-.492.048.814.814 0 0 1-.511-.143c-.133-.094-.182-.3-.182-.6v-3.847h1.847v-1.433h-1.847v-2.5l-1.735.616v1.88h-1.173v1.433h1.173v3.858a3.775 3.775 0 0 0 .11.934 1.751 1.751 0 0 0 .372.7 1.6 1.6 0 0 0 .672.434 3.533 3.533 0 0 0 1.071.146 3.772 3.772 0 0 0 .905-.1 4.418 4.418 0 0 0 .621-.208v-.009l-.28-1.391z" transform="translate(-1040.074 -80.899)" style="fill:#fff"/>
        <path data-name="패스 123" d="M1170.324 139.032h-.027l-1.275-5.678v-.02h-1.622l-1.324 5.7h-.03l-1.073-5.678v-.02h-1.846l1.846 7.381v.017h1.986l1.214-5.175h.013l1.214 5.175h2l1.833-7.366v-.033h-1.745z" transform="translate(-1081.374 -100.839)" style="fill:#fff"/>
        <path data-name="패스 124" d="M1264.369 132.78a2.965 2.965 0 0 0-1.081-.657 4.33 4.33 0 0 0-1.435-.229 4.136 4.136 0 0 0-1.426.229 2.92 2.92 0 0 0-1.093.657 2.951 2.951 0 0 0-.7 1.062 4.036 4.036 0 0 0-.241 1.448v.868a4.053 4.053 0 0 0 .241 1.443 2.889 2.889 0 0 0 1.8 1.728 4.137 4.137 0 0 0 1.426.228 4.331 4.331 0 0 0 1.435-.228 2.984 2.984 0 0 0 1.081-.658 2.752 2.752 0 0 0 .7-1.069 3.866 3.866 0 0 0 .247-1.443v-.868a3.861 3.861 0 0 0-.247-1.448 2.773 2.773 0 0 0-.707-1.063zm-1.834 5.157a2.1 2.1 0 0 1-.682.108 2.143 2.143 0 0 1-.685-.108 1.354 1.354 0 0 1-.552-.327 1.437 1.437 0 0 1-.352-.592 2.39 2.39 0 0 1-.141-.888v-.812a1.954 1.954 0 0 1 .472-1.477 2.04 2.04 0 0 1 2.517 0 1.983 1.983 0 0 1 .475 1.477v.813a2.736 2.736 0 0 1-.144.888 1.358 1.358 0 0 1-.357.592 1.428 1.428 0 0 1-.551.326z" transform="translate(-1166.018 -99.56)" style="fill:#fff"/>
        <path data-name="패스 125" d="M1336.672 131.936a4.262 4.262 0 0 0-.574-.041 2.283 2.283 0 0 0-1.294.336 2.409 2.409 0 0 0-.772.87v-1.047h-1.655v7.4h1.727v-4.388a1.7 1.7 0 0 1 .119-.648 1.809 1.809 0 0 1 .354-.515 1.327 1.327 0 0 1 .51-.334 1.728 1.728 0 0 1 .641-.117 2.708 2.708 0 0 1 .524.039 2.135 2.135 0 0 1 .4.116l.03.013.48-1.568-.007-.007a2.947 2.947 0 0 0-.483-.109z" transform="translate(-1231.768 -99.56)" style="fill:#fff"/>
        <path data-name="패스 126" d="m1386.733 116.462 2.889-3.067h-2.178l-2.75 3.07V110.9h-1.713v9.892h1.713v-2.2l.825-.905 2.006 3.095v.011h2.207z" transform="translate(-1276.732 -80.899)" style="fill:#fff"/>
    </g>
</svg>
